<svg width="70" height="70" viewBox="0 0 70 70" fill="none" xmlns="http://www.w3.org/2000/svg">
<path d="M36.1474 22.8862C35.8783 22.4629 35.4561 22.16 34.969 22.0407C34.4819 21.9214 33.9675 21.9949 33.5333 22.2459C33.0991 22.4969 32.7787 22.9059 32.639 23.3875C32.4992 23.8692 32.551 24.3862 32.7835 24.8306L37.6446 33.2695L25.8418 31.3251L36.1279 51.9167C36.3667 52.362 36.7695 52.6969 37.251 52.8504C37.7324 53.0038 38.2547 52.9639 38.7072 52.7389C39.1597 52.5139 39.5068 52.1216 39.675 51.6451C39.8433 51.1686 39.8194 50.6454 39.6085 50.1862L32.7446 36.4195L45.1501 38.4806L36.1474 22.8862Z" fill="#0D99FF"/>
<path d="M48.8444 7.7778H44.7222V6.96114C44.7222 6.14633 44.3985 5.3649 43.8224 4.78875C43.2462 4.2126 42.4648 3.88892 41.65 3.88892H28.35C27.5352 3.88892 26.7538 4.2126 26.1776 4.78875C25.6015 5.3649 25.2778 6.14633 25.2778 6.96114V7.7778H21.1556C20.186 7.7778 19.2562 8.16294 18.5707 8.84849C17.8851 9.53404 17.5 10.4638 17.5 11.4334V62.4556C17.5 62.9356 17.5946 63.411 17.7783 63.8545C17.962 64.298 18.2312 64.701 18.5707 65.0404C18.9101 65.3799 19.3131 65.6492 19.7566 65.8329C20.2001 66.0166 20.6755 66.1111 21.1556 66.1111H48.8444C49.814 66.1111 50.7438 65.726 51.4293 65.0404C52.1149 64.3549 52.5 63.4251 52.5 62.4556V11.4334C52.5 10.4638 52.1149 9.53404 51.4293 8.84849C50.7438 8.16294 49.814 7.7778 48.8444 7.7778ZM48.6111 62.2222H21.3889V11.6667H29.1667V7.7778H40.8333V11.6667H48.6111V62.2222Z" fill="#0D99FF"/>
</svg>
