<svg width="70" height="70" viewBox="0 0 70 70" fill="none" xmlns="http://www.w3.org/2000/svg">
<path d="M37.9167 58.3334H52.5V64.1667H17.5V58.3334H32.0833V40.7459C23.8875 39.9584 17.5 33.075 17.5 24.675C17.5 23.7709 17.5875 22.8959 17.7333 22.0209L20.4167 5.83337H39.4917L35.9625 12.8625L34.3875 16.0417H40.2208L35.9625 24.5292L34.3875 27.7084H40.8333L37.9167 37.1875L45.7042 26.5125L48.0083 23.3334H41.4458L45.7042 14.8459L47.2792 11.6667H41.4458L44.3625 5.83337H49.5833L52.2958 22.0209C52.5 22.8959 52.5 23.7709 52.5 24.675C52.5 33.075 46.1125 39.9584 37.9167 40.7459V58.3334Z" fill="#0D99FF"/>
</svg>
