<svg width="70" height="70" viewBox="0 0 70 70" fill="none" xmlns="http://www.w3.org/2000/svg">
<path d="M26.2471 63.4088V56.8463ZM12.3264 57.642L16.9666 53.0018ZM6.55957 43.7213H13.1221Z" fill="#0D99FF"/>
<path d="M26.2471 63.4088V56.8463M12.3264 57.642L16.9666 53.0018M6.55957 43.7213H13.1221" stroke="#0D99FF" stroke-miterlimit="10" stroke-linecap="round"/>
<path d="M36.5804 42.7L32.3271 46.9533C32.1239 47.1565 31.9628 47.3976 31.8528 47.6631C31.7428 47.9285 31.6862 48.213 31.6862 48.5003C31.6862 48.7876 31.7428 49.0721 31.8528 49.3376C31.9628 49.603 32.1239 49.8442 32.3271 50.0473L38.515 56.2338C38.9252 56.6437 39.4814 56.874 40.0613 56.874C40.6412 56.874 41.1974 56.6437 41.6076 56.2338L45.8623 51.9805C45.9131 51.9297 45.9535 51.8694 45.981 51.803C46.0085 51.7366 46.0227 51.6654 46.0227 51.5936C46.0227 51.5217 46.0085 51.4505 45.981 51.3842C45.9535 51.3178 45.9131 51.2575 45.8623 51.2067L37.3543 42.7C37.3035 42.6492 37.2432 42.6088 37.1768 42.5813C37.1104 42.5538 37.0392 42.5396 36.9673 42.5396C36.8955 42.5396 36.8243 42.5538 36.7579 42.5813C36.6915 42.6088 36.6312 42.6492 36.5804 42.7ZM18.0195 24.1377L13.7662 28.3924C13.3562 28.8026 13.126 29.3588 13.126 29.9387C13.126 30.5186 13.3562 31.0748 13.7662 31.485L19.9527 37.6729C20.1558 37.8761 20.397 38.0372 20.6624 38.1472C20.9279 38.2572 21.2124 38.3138 21.4997 38.3138C21.787 38.3138 22.0715 38.2572 22.3369 38.1472C22.6023 38.0372 22.8435 37.8761 23.0466 37.6729L27.3 33.4196C27.3508 33.3688 27.3911 33.3085 27.4187 33.2421C27.4462 33.1757 27.4604 33.1045 27.4604 33.0326C27.4604 32.9608 27.4462 32.8896 27.4187 32.8232C27.3911 32.7568 27.3508 32.6965 27.3 32.6457L18.7933 24.1377C18.7425 24.0869 18.6822 24.0465 18.6158 24.019C18.5494 23.9915 18.4783 23.9773 18.4064 23.9773C18.3345 23.9773 18.2634 23.9915 18.197 24.019C18.1306 24.0465 18.0703 24.0869 18.0195 24.1377ZM58.6318 11.386C56.804 9.55598 54.6336 8.10408 52.2445 7.11322C49.8554 6.12236 47.2944 5.61197 44.708 5.61121C42.1216 5.61045 39.5604 6.11933 37.1707 7.10878C34.781 8.09823 32.6097 9.54886 30.7808 11.3778L21.8859 20.2713C21.8351 20.3221 21.7947 20.3824 21.7672 20.4488C21.7397 20.5152 21.7255 20.5864 21.7255 20.6582C21.7255 20.7301 21.7397 20.8013 21.7672 20.8677C21.7947 20.934 21.8351 20.9944 21.8859 21.0451L30.3939 29.5518C30.4447 29.6026 30.505 29.643 30.5714 29.6705C30.6378 29.698 30.709 29.7122 30.7808 29.7122C30.8527 29.7122 30.9239 29.698 30.9902 29.6705C31.0566 29.643 31.1169 29.6026 31.1677 29.5518L40.0545 20.6582C40.6706 20.0422 41.4032 19.5549 42.2096 19.225C43.016 18.8951 43.88 18.729 44.7512 18.7365C45.6225 18.744 46.4835 18.925 47.2841 19.2687C48.0847 19.6125 48.8088 20.1123 49.4142 20.7389C51.9162 23.3256 51.8027 27.4709 49.2584 30.0153L40.4482 38.8282C40.3974 38.8789 40.357 38.9393 40.3295 39.0056C40.302 39.072 40.2878 39.1432 40.2878 39.2151C40.2878 39.2869 40.302 39.3581 40.3295 39.4245C40.357 39.4909 40.3974 39.5512 40.4482 39.602L48.9548 48.11C49.0056 48.1608 49.0659 48.2012 49.1323 48.2287C49.1987 48.2562 49.2699 48.2704 49.3418 48.2704C49.4136 48.2704 49.4848 48.2562 49.5512 48.2287C49.6176 48.2012 49.6779 48.1608 49.7287 48.11L58.4896 39.3491C66.1964 31.6463 66.3332 19.0969 58.6318 11.386Z" fill="#0D99FF"/>
</svg>
