<svg width="70" height="70" viewBox="0 0 70 70" fill="none" xmlns="http://www.w3.org/2000/svg">
<path d="M18.3887 4.16992V65.8301H51.6113V4.16992H18.3887ZM32.1535 6.9043H37.841C38.1311 6.9043 38.4093 7.01953 38.6144 7.22465C38.8195 7.42977 38.9348 7.70797 38.9348 7.99805C38.9348 8.28813 38.8195 8.56633 38.6144 8.77144C38.4093 8.97656 38.1311 9.0918 37.841 9.0918H32.1535C31.8634 9.0918 31.5852 8.97656 31.3801 8.77144C31.175 8.56633 31.0598 8.28813 31.0598 7.99805C31.0598 7.70797 31.175 7.42977 31.3801 7.22465C31.5852 7.01953 31.8634 6.9043 32.1535 6.9043ZM34.9316 64.3959C34.4108 64.3959 33.9017 64.2415 33.4687 63.9521C33.0357 63.6628 32.6982 63.2515 32.4989 62.7704C32.2996 62.2892 32.2474 61.7598 32.349 61.249C32.4506 60.7382 32.7014 60.269 33.0697 59.9007C33.4379 59.5325 33.9071 59.2817 34.4179 59.1801C34.9287 59.0785 35.4582 59.1306 35.9393 59.3299C36.4205 59.5292 36.8317 59.8667 37.1211 60.2998C37.4104 60.7328 37.5648 61.2419 37.5648 61.7627C37.5648 62.4611 37.2874 63.1308 36.7936 63.6246C36.2998 64.1185 35.63 64.3959 34.9316 64.3959ZM49.2871 58.3105H20.4395V11.416H49.2871V58.3105Z" fill="#0D99FF"/>
</svg>
