<svg width="50" height="50" viewBox="0 0 50 50" fill="none" xmlns="http://www.w3.org/2000/svg">
<path d="M25 2.08337L6.25 10.4167V22.9167C6.25 34.4792 14.25 45.2917 25 47.9167C35.75 45.2917 43.75 34.4792 43.75 22.9167V10.4167L25 2.08337ZM25 18.5209C28.3333 18.5209 31.0208 21.2084 31.0208 24.5417C31.0208 27.875 28.3333 30.5625 25 30.5625C21.6667 30.5625 18.9792 27.8542 18.9792 24.5417C18.9792 21.2292 21.6875 18.5209 25 18.5209ZM25 12.5L27.875 16.6667C27 16.2917 26.0417 16.1042 25 16.1042C23.4375 16.1042 23.0208 16.2917 22.125 16.6667L25 12.5ZM14.5833 18.5209L19.5833 18.1042C18.875 18.75 18.2083 19.4584 17.7083 20.3334C17.1875 21.2084 16.875 22.125 16.6667 23.0834L14.5833 18.5209ZM14.5833 30.5625L16.7292 26.0417C16.8958 26.9375 17.2292 27.875 17.7083 28.75C18.2292 29.6459 18.875 30.3959 19.5833 31L14.5833 30.5625ZM35.4167 18.5209L33.3333 23.0834C33.125 22.125 32.7917 21.2084 32.2917 20.3334C31.7917 19.4584 31.1458 18.75 30.4167 18.0834L35.4167 18.5209ZM35.4167 30.5625L30.4167 30.9792C31.125 30.375 31.7708 29.625 32.2917 28.75C32.7917 27.875 33.1042 26.9375 33.2708 26.0417L35.4167 30.5625ZM25 36.5625L22.1042 32.4375C23 32.75 23.9583 32.9584 25 32.9584C26.0417 32.9584 26.9792 32.75 27.8542 32.4375L25 36.5625Z" fill="#0D99FF"/>
</svg>
