<svg width="70" height="70" viewBox="0 0 70 70" fill="none" xmlns="http://www.w3.org/2000/svg">
<path d="M35.6998 11.48C48.0548 11.48 58.2048 20.615 59.9198 32.48H67.1998L54.9498 46.48L42.6998 32.48H50.8198C50.0362 29.0542 48.1146 25.9951 45.3685 23.802C42.6224 21.609 39.2141 20.4115 35.6998 20.405C30.6248 20.405 26.1448 22.89 23.3098 26.635L17.3248 19.81C19.6163 17.1913 22.4416 15.0932 25.6108 13.6565C28.7801 12.2197 32.2201 11.4776 35.6998 11.48ZM34.2998 58.52C21.9798 58.52 11.7948 49.385 10.0798 37.52H2.7998L15.0498 23.52C19.1448 28.175 23.2048 32.865 27.2998 37.52H19.1798C19.9634 40.9458 21.885 44.0049 24.6311 46.1979C27.3772 48.391 30.7855 49.5885 34.2998 49.595C39.3748 49.595 43.8548 47.11 46.6898 43.365L52.6748 50.19C50.3862 52.8122 47.5616 54.9128 44.3916 56.3498C41.2217 57.7868 37.7803 58.5269 34.2998 58.52Z" fill="#0D99FF"/>
</svg>
